<?xml version="1.0" encoding="utf-8"?>
<!-- Generator: Adobe Illustrator 23.0.1, SVG Export Plug-In . SVG Version: 6.00 Build 0)  -->
<svg version="1.1" id="Capa_1" xmlns="http://www.w3.org/2000/svg" xmlns:xlink="http://www.w3.org/1999/xlink" x="0px" y="0px"
	 viewBox="0 0 12 12" style="enable-background:new 0 0 12 12;" xml:space="preserve">
<style type="text/css">
	.st0{fill:#FFFFFF;}
</style>
<g>
	<path class="st0" d="M10,4.6c0-0.3,0-0.5-0.1-0.8C9.7,3.1,9.3,2.5,8.6,2.2C8.3,2.1,7.9,2,7.5,2C6.7,2,5.8,2,5,2
		C4.6,2,4.2,2,3.8,2.1C3,2.3,2.4,2.7,2.2,3.5C2,3.9,2,4.3,2,4.7c0,0.8,0,1.6,0,2.4c0,0.4,0,0.7,0.1,1.1C2.2,8.7,2.4,9.2,3,9.6
		C3.3,9.8,3.8,10,4.2,10c0.6,0,1.1,0,1.7,0c0.5,0,0.9,0,1.4,0c0.3,0,0.7,0,1-0.1C9,9.7,9.5,9.3,9.8,8.6C9.9,8.3,10,7.9,10,7.5
		c0-0.5,0-1,0-1.5C10,5.5,10,5,10,4.6z M9.3,7.6c0,0.2,0,0.4-0.1,0.6C9,8.8,8.6,9.1,8,9.2C7.7,9.3,7.3,9.3,6.9,9.3c-0.3,0-0.7,0-1,0
		c-0.6,0-1.1,0-1.7,0C4,9.2,3.8,9.2,3.6,9.1c-0.5-0.2-0.7-0.5-0.8-1C2.7,7.8,2.7,7.6,2.7,7.3c0-0.8,0-1.6,0-2.5c0-0.3,0-0.6,0.1-0.9
		c0.1-0.6,0.6-1,1.2-1.1c0.4-0.1,0.8-0.1,1.2-0.1c0.7,0,1.5,0,2.2,0c0.3,0,0.5,0,0.8,0.1C8.8,3,9.1,3.4,9.2,4
		c0.1,0.4,0.1,0.8,0.1,1.1c0,0.3,0,0.6,0,0.9C9.3,6.5,9.3,7.1,9.3,7.6z"/>
	<path class="st0" d="M6,4C4.9,4,3.9,4.9,3.9,6c0,1.1,0.9,2,2,2.1C7.1,8.1,8,7.1,8,6C8,4.9,7.1,4,6,4z M6,7.3C5.3,7.3,4.7,6.7,4.7,6
		c0-0.7,0.6-1.3,1.3-1.3c0.7,0,1.3,0.6,1.3,1.3C7.3,6.8,6.7,7.4,6,7.3z"/>
	<path class="st0" d="M8.1,3.4c-0.3,0-0.5,0.2-0.5,0.5c0,0.3,0.2,0.5,0.5,0.5c0.3,0,0.5-0.2,0.5-0.5C8.6,3.6,8.4,3.4,8.1,3.4z"/>
</g>
</svg>
