<?xml version="1.0" encoding="UTF-8"?>
<svg id="logos" xmlns="http://www.w3.org/2000/svg" version="1.1" viewBox="0 0 612 425.2">
  <!-- Generator: Adobe Illustrator 29.8.6, SVG Export Plug-In . SVG Version: 2.1.1 Build 1)  -->
  <defs>
    <style>
      .st0 {
        fill: #00bcff;
      }

      .st1 {
        fill: #fff;
      }

      .st2 {
        fill: #0a0080;
      }
    </style>
  </defs>
  <path class="st0" d="M304.43,13.23C142.22,13.23,10.75,97.35,10.75,201.12s131.49,196.02,293.68,196.02,293.68-92.27,293.68-196.02S466.62,13.23,304.43,13.23Z"/>
  <path class="st1" d="M208.87,143.04c-.15.29-3.02,3.25-1.15,5.65,4.54,5.79,18.57,9.13,32.76,5.94,8.44-1.9,19.28-10.5,29.76-18.82,11.36-9.02,22.63-18.07,33.97-21.65,12-3.81,19.7-2.19,24.78-.65,5.56,1.67,12.13,5.34,22.59,13.17,19.7,14.8,98.85,83.91,112.55,95.85,11-4.98,63.51-26.18,130.03-40.85-5.79-35.47-27.12-69.3-59.86-95.85-45.62,19.15-105.08,30.64-159.61,4.02-.27-.1-29.78-14.07-58.88-13.38-43.25,1-61.98,19.72-81.8,39.54l-25.11,27.07-.04-.04Z"/>
  <path class="st1" d="M460.87,230.05c-.94-.83-93.1-81.47-113.98-97.16-12.09-9.07-18.8-11.38-25.86-12.28-3.67-.48-8.75.21-12.3,1.19-9.71,2.65-22.41,11.13-33.68,20.07-11.67,9.3-22.68,18.05-32.91,20.34-13.05,2.92-28.99-.52-36.26-5.44-2.94-1.98-5.02-4.27-6.02-6.59-2.69-6.23,2.27-11.21,3.08-12.05l25.43-27.51c2.96-2.94,5.94-5.9,8.98-8.82-8.21,1.06-15.8,3.17-23.18,5.21-9.21,2.58-18.09,5.04-27.05,5.04-3.75,0-23.8-3.29-27.62-4.31-23.03-6.29-49.1-12.44-79.28-26.53-36.16,26.91-59.71,59.96-66.69,97.04,5.19,1.38,18.8,4.48,22.32,5.25,81.83,18.19,107.31,36.93,111.94,40.85,5-5.56,12.23-9.09,20.28-9.09,9.07,0,17.22,4.56,22.18,11.59,4.69-3.71,11.15-6.88,19.51-6.86,3.79,0,7.73.71,11.71,2.04,9.23,3.17,14.01,9.32,16.47,14.88,3.08-1.4,6.9-2.44,11.38-2.42,4.42,0,9,1,13.61,3,15.09,6.48,17.42,21.3,16.07,32.47,1.08-.13,2.17-.17,3.25-.17,17.88,0,32.43,14.55,32.43,32.45,0,5.54-1.42,10.75-3.88,15.32,4.88,2.73,17.28,8.92,28.18,7.54,8.69-1.1,12-4.06,13.17-5.75.81-1.15,1.67-2.5.88-3.46l-23.09-25.64s-3.79-3.61-2.54-4.98c1.29-1.42,3.65.63,5.31,2,11.75,9.82,26.09,24.61,26.09,24.61.25.17,1.19,2.04,6.5,2.98,4.56.81,12.65.35,18.26-4.25,1.4-1.17,2.81-2.61,4.02-4.11-.1.08-.19.17-.27.21,5.92-7.57-.67-15.19-.67-15.19l-26.95-30.26s-3.86-3.56-2.54-5c1.17-1.25,3.65.63,5.34,2.04,8.52,7.13,20.59,19.24,32.14,30.55,2.27,1.65,12.42,7.92,25.86-.9,8.17-5.36,9.8-11.94,9.57-16.88-.56-6.57-5.69-11.25-5.69-11.25l-36.81-37.02s-3.9-3.31-2.52-5c1.13-1.42,3.65.63,5.31,2,11.71,9.82,43.48,38.93,43.48,38.93.46.31,11.42,8.13,24.99-.5,4.86-3.11,7.94-7.77,8.21-13.21.46-9.42-6.17-15.01-6.17-15.01h.02Z"/>
  <path class="st1" d="M282.29,276.97c-5.71-.06-11.96,3.33-12.78,2.83-.46-.29.35-2.58.88-3.92.56-1.31,8.07-23.93-10.25-31.78-14.03-6.02-22.61.75-25.55,3.81-.77.79-1.13.73-1.21-.27-.29-4.09-2.11-15.09-14.21-18.8-17.3-5.29-28.43,6.77-31.24,11.15-1.27-9.86-9.61-17.51-19.8-17.53-11.09,0-20.09,8.96-20.11,20.07,0,11.09,8.98,20.09,20.09,20.09,5.4,0,10.28-2.15,13.88-5.61.13.1.17.29.1.67-.85,4.98-2.4,23.01,16.51,30.37,7.59,2.94,14.03.75,19.36-2.98,1.58-1.13,1.85-.65,1.63.85-.69,4.65.19,14.57,14.11,20.22,10.59,4.31,16.86-.08,20.99-3.9,1.79-1.63,2.27-1.35,2.38,1.17.5,13.42,11.65,24.09,25.2,24.11,13.96,0,25.28-11.28,25.28-25.22s-11.3-25.14-25.26-25.28l.02-.06Z"/>
  <path class="st2" d="M304.37,5.46C139.07,5.46,5.08,93.37,5.08,201.2c0,2.79-.04,10.48-.04,11.46,0,114.42,117.11,207.06,299.29,207.06s299.31-92.64,299.31-207.04v-11.48c0-107.84-133.99-195.75-299.27-195.75h0ZM590.15,179.51c-65.05,14.46-113.57,35.45-125.72,40.87-28.39-24.78-94-81.83-111.78-95.16-10.15-7.65-17.09-11.67-23.18-13.48-2.73-.83-6.5-1.77-11.36-1.77-4.52,0-9.38.81-14.44,2.44-11.48,3.65-22.93,12.73-33.99,21.53l-.56.46c-10.32,8.19-20.97,16.67-29.03,18.47-3.52.79-7.15,1.21-10.75,1.21-9.05,0-17.15-2.63-20.2-6.5-.5-.65-.17-1.69,1-3.17l.15-.21,24.99-26.91c19.57-19.57,38.04-38.04,80.57-39.02.71-.02,1.42-.04,2.13-.04,26.47.02,52.94,11.86,55.92,13.26,24.82,12.11,50.46,18.26,76.2,18.28,26.78,0,54.42-6.61,83.47-19.97,30.35,25.51,50.46,56.25,56.59,89.75v-.02ZM304.41,17c87.74,0,166.24,25.16,219.03,64.76-25.51,11.05-49.83,16.61-73.3,16.61-24.01-.02-48-5.79-71.3-17.15-1.23-.58-30.45-14.36-60.86-14.38-.79,0-1.6,0-2.4.02-35.72.83-55.86,13.53-69.38,24.64-13.15.33-24.51,3.5-34.62,6.32-9.02,2.5-16.8,4.67-24.39,4.67-3.13,0-8.75-.29-9.25-.31-8.71-.27-52.48-11-87.43-24.2,52.67-37.43,128.99-60.98,213.92-60.98l-.02.02ZM80.13,85.8c36.49,14.92,80.78,26.47,94.79,27.37,3.9.25,8.07.71,12.23.71,9.3,0,18.57-2.61,27.53-5.11,5.29-1.48,11.15-3.11,17.3-4.27-1.65,1.6-3.29,3.25-4.94,4.9l-25.36,27.45c-2,2.02-6.34,7.4-3.48,14.03,1.13,2.67,3.44,5.23,6.67,7.4,6.04,4.06,16.88,6.84,26.93,6.84,3.81,0,7.44-.38,10.73-1.13,10.65-2.38,21.8-11.28,33.62-20.68,9.42-7.48,22.8-16.99,33.06-19.78,2.88-.77,6.38-1.27,9.21-1.27.85,0,1.65.04,2.38.15,6.75.85,13.3,3.15,24.99,11.92,20.84,15.65,113,96.29,113.9,97.08.06.04,5.94,5.13,5.52,13.55-.23,4.71-2.83,8.88-7.38,11.78-3.94,2.5-7.98,3.77-12.09,3.77-6.17,0-10.4-2.9-10.69-3.08-.33-.27-31.91-29.24-43.54-38.97-1.85-1.54-3.65-2.92-5.46-2.92-.98,0-1.83.42-2.42,1.15-1.83,2.25.21,5.38,2.63,7.42l36.89,37.1s4.61,4.29,5.11,9.98c.29,6.15-2.65,11.3-8.75,15.3-4.36,2.88-8.75,4.31-13.07,4.31-5.67,0-9.65-2.58-10.53-3.19l-5.29-5.21c-9.67-9.52-19.65-19.36-26.97-25.45-1.79-1.48-3.69-2.86-5.5-2.86-.9,0-1.71.33-2.33,1-.83.92-1.42,2.58.67,5.36.83,1.15,1.85,2.08,1.85,2.08l26.91,30.24c.21.27,5.54,6.61.6,12.9l-.96,1.21c-.81.88-1.67,1.71-2.5,2.42-4.59,3.77-10.71,4.17-13.15,4.17-1.31,0-2.54-.1-3.65-.31-2.65-.48-4.44-1.21-5.31-2.23l-.33-.33c-1.46-1.52-15.03-15.38-26.26-24.74-1.48-1.25-3.33-2.79-5.23-2.79-.94,0-1.77.38-2.44,1.08-2.21,2.44,1.13,6.07,2.54,7.4l22.95,25.32c-.02.23-.31.75-.85,1.54-.83,1.15-3.61,3.92-11.94,4.96-1,.13-2.04.19-3.04.19-8.59,0-17.76-4.17-22.49-6.67,2.15-4.54,3.27-9.55,3.27-14.55,0-18.9-15.34-34.26-34.24-34.28-.4,0-.83,0-1.23.02.6-8.63-.6-24.97-17.38-32.16-4.84-2.08-9.65-3.17-14.32-3.17-3.67,0-7.19.63-10.5,1.9-3.48-6.75-9.25-11.67-16.76-14.24-4.17-1.44-8.3-2.17-12.3-2.17-6.98,0-13.42,2.06-19.15,6.13-5.5-6.84-13.8-10.88-22.53-10.88-7.65,0-15.01,3.06-20.45,8.46-7.15-5.46-35.49-23.47-111.38-40.7-3.63-.81-11.86-3.17-17.03-4.69,7.11-34.06,28.76-65.17,60.86-90.7l.1-.04ZM220.89,283.34l-.81-.73h-.83c-.67,0-1.38.27-2.31.94-3.88,2.73-7.57,4.04-11.34,4.04-2.08,0-4.21-.42-6.34-1.23-17.59-6.86-16.21-23.45-15.34-28.45.13-1.02-.13-1.79-.77-2.33l-1.25-1.02-1.17,1.1c-3.44,3.31-7.92,5.11-12.63,5.11-10.07,0-18.28-8.19-18.26-18.28,0-10.07,8.21-18.26,18.3-18.24,9.11,0,16.86,6.84,18.01,15.94l.63,4.9,2.69-4.15c.29-.48,7.69-11.65,21.26-11.63,2.58,0,5.25.42,7.94,1.25,10.82,3.29,12.65,13.11,12.92,17.19.19,2.38,1.9,2.5,2.21,2.5.94,0,1.63-.58,2.11-1.1,2.04-2.13,6.48-5.67,13.44-5.67,3.19,0,6.57.77,10.07,2.27,17.19,7.38,9.4,29.22,9.32,29.45-1.48,3.63-1.54,5.21-.15,6.15l.67.31h.5c.77,0,1.73-.33,3.33-.88,2.33-.81,5.86-2.02,9.17-2.02h0c12.94.15,23.47,10.69,23.47,23.47s-10.55,23.43-23.49,23.43-22.95-9.86-23.41-22.38c-.04-1.08-.15-3.92-2.56-3.92-.98,0-1.85.6-2.83,1.5-2.79,2.58-6.34,5.19-11.5,5.19-2.36,0-4.9-.54-7.59-1.65-13.36-5.42-13.55-14.59-13.01-18.28.15-.98.19-2-.48-2.81l.04.02ZM304.41,385.22c-158.94,0-287.79-82.43-287.79-184.1,0-4.09.29-8.15.69-12.17,1.27.31,13.9,3.31,16.51,3.92,77.51,17.22,103.13,35.12,107.46,38.52-1.46,3.52-2.23,7.32-2.23,11.15,0,16.03,13.03,29.07,29.03,29.07,1.79,0,3.58-.17,5.34-.5,2.42,11.8,10.13,20.74,21.9,25.32,3.44,1.31,6.92,2,10.36,2,2.21,0,4.44-.27,6.61-.81,2.19,5.52,7.07,12.42,18.03,16.86,3.83,1.54,7.67,2.36,11.4,2.36,3.04,0,6.02-.54,8.86-1.58,5.25,12.78,17.74,21.26,31.66,21.26,9.23,0,18.09-3.75,24.55-10.4,5.52,3.08,17.19,8.65,28.99,8.67,1.52,0,2.94-.1,4.4-.27,11.71-1.48,17.15-6.07,19.65-9.63.46-.63.85-1.29,1.21-1.98,2.75.79,5.79,1.44,9.3,1.46,6.4,0,12.53-2.19,18.74-6.69,6.11-4.4,10.44-10.71,11.07-16.09,0-.06,0-.15.02-.23,2.06.42,4.17.63,6.27.63,6.59,0,13.07-2.04,19.26-6.11,11.94-7.82,14.01-18.05,13.82-24.74,2.11.44,4.23.67,6.36.67,6.17,0,12.26-1.85,18.03-5.54,7.4-4.73,11.86-11.98,12.55-20.4.44-5.73-.98-11.53-3.98-16.49,19.97-8.61,65.61-25.26,119.36-37.37.23,3.04.35,6.11.35,9.19,0,101.67-128.84,184.1-287.76,184.1v-.06Z"/>
</svg>