<?xml version="1.0" encoding="utf-8"?>
<!-- Generator: Adobe Illustrator 24.2.3, SVG Export Plug-In . SVG Version: 6.00 Build 0)  -->
<svg version="1.1" id="Capa_1" xmlns="http://www.w3.org/2000/svg" xmlns:xlink="http://www.w3.org/1999/xlink" x="0px" y="0px"
	 viewBox="0 0 980 980" style="enable-background:new 0 0 980 980;" xml:space="preserve">
<style type="text/css">
	.st0{fill:none;}
	.st1{fill:#FFFFFF;}
</style>
<g>
	<path class="st0" d="M470,331.3c1.2-1.3,3.1-3.3,5.6-6C473.4,326.9,471.6,328.9,470,331.3z"/>
	<path class="st1" d="M586.7,118.5c-2.7,42.8-12.9,84.7-30.3,124.6c-14.6,33.4-31.6,59.7-45.4,77.9c14.2,0.1,28.4-0.4,42.6-2.5
		c19.4-3,38.6-10.2,47.2-29.7c15.5-35.5,34.9-69.8,53.5-104c15.1-27.8,14.2-55-15.2-73.7c-13.7-20.8-29.9-32.4-52.2-34.7
		C587.7,90.5,587.6,104.6,586.7,118.5z"/>
	<path class="st1" d="M543.6,882.2c-0.7,7.3-1.6,14.7-2.6,22.1c32.4,1.2,64.6-9.1,94.3-31.2c10.5-7.7,21.8-15.8,17.6-31.5
		c-13.5-51.5-25.8-103.4-43-154c-5.2-15.4-15.8-20.3-31.9-19.2c-23.1,1.7-46.3,2.3-69.5,3.1c9.5,17.8,21.1,44.9,28.8,81.4
		C545.8,793.2,548,836.7,543.6,882.2z"/>
	<path class="st1" d="M468.7,333.4l-0.4-0.4c0,0,0.6-0.6,1.7-1.7c1.6-2.4,3.4-4.4,5.6-6c12.4-13.9,38.4-46.1,58.7-93
		c16-37.2,25.4-76.2,27.9-116c0.8-13.5,0.9-27.1,0.1-40.7c-64.9,1.2-117.2,29.7-157.7,83.9c-38.1,51.1-51.6,111.5-66.4,171.7
		C299,491,313.7,644.5,386.9,792.2c16.4,33,37.7,60,67.9,81.2c20,14,40.7,23.4,61.7,27.9c1-6.8,1.8-13.5,2.4-20.2
		c4.2-42.8,2.4-83.7-5.4-121.4c-9.4-45.5-26.4-78.2-36.5-92.9c-3.8-3.1-6.8-7.6-8.9-13.7c-37.2-103.6-37.2-207.6-2.6-312.1
		C466.4,338.1,467.5,335.6,468.7,333.4z"/>
	<path class="st1" d="M468.3,333l0.4,0.4c0.4-0.7,0.8-1.4,1.3-2.1C469,332.4,468.4,333,468.3,333z"/>
</g>
</svg>
