<?xml version="1.0" encoding="UTF-8"?>
<svg id="Capa_1" xmlns="http://www.w3.org/2000/svg" version="1.1" viewBox="0 0 949.87 218.64">
  <!-- Generator: Adobe Illustrator 29.8.6, SVG Export Plug-In . SVG Version: 2.1.1 Build 1)  -->
  <defs>
    <style>
      .st0 {
        fill: #fffffa;
      }

      .st1 {
        fill: #fff;
      }
    </style>
  </defs>
  <polygon class="st1" points="261.03 55.89 256.69 81.28 203.93 81.33 201.51 96.65 245.67 96.65 241.28 121.52 196.71 121.59 193.83 138.84 248.55 138.84 244.23 163.77 153.99 163.77 173.43 55.89 261.03 55.89"/>
  <path class="st1" d="M602.31,55.89l-4.29,25.21-52.05.27c-.44.09-.55.37-.69.75-1.41,3.76-1.19,10.44-2.49,14.53h44.64l-4.32,24.93-44.57.07-2.95,17.2h54.24l-3.84,24.93h-90.24l18.72-107.88h87.84Z"/>
  <polygon class="st1" points="156.39 55.89 152.1 81.1 103.64 81.36 100.23 100.96 138.63 100.96 134.34 125.69 95.65 126.36 89.19 163.77 53.67 163.77 72.39 55.89 156.39 55.89"/>
  <polygon class="st0" points="775.11 55.89 756.39 163.77 720.87 163.77 739.59 55.89 775.11 55.89"/>
  <path class="st1" d="M372.25,88.11c5.65-27.56-15.49-31.36-37.51-32.24-18.46-.74-37.43.6-55.94.03l-18.72,107.88h35.52l6.24-37.39c6.91.59,25.17-2.69,27.14,6.68,1.89,8.97-3.77,21.24-2.19,30.71h36c.17,0,.56-3.19.44-3.32-.6-.67-2.65.26-2.74-3.63-.3-12.04,10.43-32.22-3.6-40.61l-6.57-3.26c11.82-3.28,19.52-13.08,21.93-24.84h0ZM338.68,92.94c-.91,5.34-7.49,9.46-12.61,9.46h-19.92l4.13-21.13c9.33.95,31.14-4.42,28.39,11.66h.01Z"/>
  <path class="st1" d="M488.89,88.11c5.65-27.56-15.49-31.36-37.51-32.24-18.46-.74-37.43.6-55.94.03l-18.72,107.88h35.52l6.24-37.39c6.91.59,25.17-2.69,27.14,6.68,1.89,8.97-3.77,21.24-2.19,30.71h36c.17,0,.56-3.19.44-3.32-.6-.67-2.65.26-2.74-3.63-.3-12.04,10.43-32.22-3.6-40.61l-6.57-3.26c11.82-3.28,19.52-13.08,21.93-24.84h0ZM455.32,92.94c-.91,5.34-7.49,9.46-12.61,9.46h-19.92l4.13-21.13c9.33.95,31.14-4.42,28.39,11.66h.01Z"/>
  <path class="st0" d="M673.13,55.87c-16.89-.87-34.68.52-51.65.23l-19.17,107.67,54.5.02c30.27-2.06,50.3-19.22,57.68-48.34,9.06-35.73-3.47-57.63-41.36-59.58ZM675.84,123.83c-6.88,13.31-19.74,15.72-33.69,15.01l10.08-57.53c9.17.09,23.59-1.57,27.77,8.93,3.31,8.32-.08,25.68-4.17,33.59h0Z"/>
  <path class="st0" d="M882.4,68.35c-16.39-20.34-62.65-9.76-85.95-12.48l-1.21.23-19.17,107.67h35.52l5.76-33.56c22.06.28,45.04,2.07,60.46-16.56,9-10.88,14.1-33.49,4.58-45.3h0ZM838.23,105.28h-16.08l3.84-23.97c7.55.23,27.15-2.29,27.25,9.34.07,7.97-7.18,14.63-15.02,14.63,0,0,.01,0,.01,0Z"/>
</svg>